<?xml version="1.0" encoding="UTF-8" standalone="no"?><!-- Generator: Gravit.io --><svg xmlns="http://www.w3.org/2000/svg" xmlns:xlink="http://www.w3.org/1999/xlink" style="isolation:isolate" viewBox="0 0 1000 1000" width="1000pt" height="1000pt"><defs><clipPath id="_clipPath_AWwdwxGecojjkKZTLic5p8qMkI2TcVn0"><rect width="1000" height="1000"/></clipPath></defs><g clip-path="url(#_clipPath_AWwdwxGecojjkKZTLic5p8qMkI2TcVn0)"><g><path d=" M 690.066 452.872 C 690.057 447.521 687.931 442.39 684.153 438.601 L 561.554 316.077 C 553.669 308.227 540.922 308.227 533.037 316.077 C 533.037 316.077 189.241 664.738 154.188 699.791 C 154.188 699.791 159.202 694.327 154.188 699.791 L 453.974 699.791 L 684.153 467.143 C 687.92 463.346 690.043 458.22 690.066 452.872 Z " fill="rgb(144,202,249)"/><path d=" M 776.963 401.003 C 771.606 400.998 766.471 398.862 762.692 395.065 L 605.139 237.513 C 597.273 229.625 597.273 216.859 605.139 208.971 C 605.139 208.971 747.024 67.111 749.319 64.766 C 773.958 39.967 807.496 26.059 842.454 26.145 C 877.377 26.048 910.887 39.929 935.513 64.691 C 986.829 116.129 986.829 199.397 935.513 250.835 C 933.018 253.28 791.233 395.065 791.233 395.065 C 787.448 398.853 782.317 400.987 776.963 401.003 Z " fill="rgb(255,152,0)"/><path d=" M 722.424 515.319 C 710.449 515.319 699.122 510.628 690.664 502.196 L 498.009 309.54 C 489.564 301.132 484.83 289.697 484.861 277.78 C 484.861 265.805 489.551 254.478 498.009 246.02 L 550.551 193.503 C 567.541 176.512 597.081 176.512 614.121 193.503 L 806.752 386.133 C 824.272 403.692 824.272 432.119 806.752 449.678 L 754.259 502.196 C 745.808 510.619 734.356 515.34 722.424 515.319 L 722.424 515.319 Z " fill="rgb(245,127,23)"/><path d=" M 154.213 699.766 C 148.275 706.228 135.576 718.877 130.686 724.715 C 104.215 756.201 91.99 779.528 87.649 801.209 C 83.757 820.644 80.089 839.031 31.888 887.208 C 29.973 889.095 28.009 890.934 26 892.721 L 107.084 973.855 C 109.853 971.26 112.099 969.14 112.922 968.292 C 161.148 920.015 179.486 916.398 198.921 912.506 C 228.061 906.693 252.761 898.46 305.528 845.693 L 453.974 699.716 L 154.213 699.766 Z " fill="rgb(233,30,99)"/></g><path d=" M 974 765.062 L 765.207 765.062 L 765.207 973.855 L 695.609 973.855 L 695.609 765.062 L 486.816 765.062 L 486.816 695.464 L 695.609 695.464 L 695.609 486.671 L 765.207 486.671 L 765.207 695.464 L 974 695.464 L 974 765.062 Z " fill="rgb(15,210,15)"/></g></svg>