<?xml version="1.0" encoding="UTF-8" standalone="no"?><!-- Generator: Gravit.io --><svg xmlns="http://www.w3.org/2000/svg" xmlns:xlink="http://www.w3.org/1999/xlink" style="isolation:isolate" viewBox="0 0 1000 1000" width="1000pt" height="1000pt"><defs><clipPath id="_clipPath_gMt02HpVUv1vF59aZiE7CHyf5PuiKZcC"><rect width="1000" height="1000"/></clipPath></defs><g clip-path="url(#_clipPath_gMt02HpVUv1vF59aZiE7CHyf5PuiKZcC)"><path d=" M 500 42.808 C 752.328 42.808 957.192 247.672 957.192 500 C 957.192 752.328 752.328 957.192 500 957.192 C 247.672 957.192 42.808 752.328 42.808 500 C 42.808 247.672 247.672 42.808 500 42.808 Z  M 500 79.913 C 728.835 79.913 914.632 268.153 914.632 500 C 914.632 731.865 728.835 920.087 500 920.106 C 271.165 920.106 85.368 731.865 85.368 500 C 85.368 268.153 271.165 79.913 500 79.913 Z  M 500 107.704 C 716.509 107.704 892.296 283.491 892.296 500 C 892.296 716.509 716.509 892.296 500 892.296 C 283.491 892.296 107.704 716.509 107.704 500 C 107.704 283.491 283.491 107.704 500 107.704 Z " fill-rule="evenodd" fill="rgb(255,255,255)"/></g></svg>