<?xml version="1.0" encoding="UTF-8" standalone="no"?><!-- Generator: Gravit.io --><svg xmlns="http://www.w3.org/2000/svg" xmlns:xlink="http://www.w3.org/1999/xlink" style="isolation:isolate" viewBox="0 0 1000 1000" width="1000pt" height="1000pt"><defs><clipPath id="_clipPath_VIhdEuGi0q9SMNoOM8rjL6hKWCaGhC6c"><rect width="1000" height="1000"/></clipPath></defs><g clip-path="url(#_clipPath_VIhdEuGi0q9SMNoOM8rjL6hKWCaGhC6c)"><g><path d=" M 975 209.722 C 975 224.368 963.257 236.111 948.611 236.111 L 51.389 236.111 C 36.815 236.111 25 224.296 25 209.722 L 25 51.389 C 25 36.875 36.875 25 51.389 25 L 948.611 25 C 963.257 25 975 36.743 975 51.389 L 975 209.722 Z " fill="rgb(255,202,40)"/><path d=" M 25 156.944 L 975 156.944 L 975 975 L 25 975 L 25 156.944 Z " fill="rgb(23,23,23)"/><path d=" M 447.222 368.056 L 552.778 368.056 L 552.778 737.5 L 447.222 737.5 L 447.222 368.056 Z " fill="rgb(255,202,40)"/><path d=" M 315.278 500 L 684.722 500 L 684.722 605.556 L 315.278 605.556 L 315.278 500 Z " fill="rgb(255,202,40)"/></g></g></svg>