<?xml version="1.0" encoding="UTF-8" standalone="no"?><!-- Generator: Gravit.io --><svg xmlns="http://www.w3.org/2000/svg" xmlns:xlink="http://www.w3.org/1999/xlink" style="isolation:isolate" viewBox="0 0 1000 1000" width="1000pt" height="1000pt"><defs><clipPath id="_clipPath_xlldWsrytbz4KOx8TOlWvUKXL5XdA1ZQ"><rect width="1000" height="1000"/></clipPath></defs><g clip-path="url(#_clipPath_xlldWsrytbz4KOx8TOlWvUKXL5XdA1ZQ)"><g><path d=" M 799.545 221.546 L 428.273 221.546 L 335.454 128.727 L 103.409 128.727 C 52.359 128.727 10.591 170.496 10.591 221.546 L 10.591 778.454 C 10.591 829.504 52.359 871.273 103.409 871.273 L 822.75 871.273 C 862.197 871.273 892.363 841.107 892.363 801.659 L 892.363 314.364 C 892.363 263.314 850.595 221.546 799.545 221.546 Z " fill="rgb(255,160,0)"/><path d=" M 897.004 360.773 L 272.802 360.773 C 228.667 360.773 189.266 393.213 182.258 437.348 L 103.409 871.273 L 838.993 871.273 C 883.128 871.273 922.529 838.833 929.537 794.698 L 987.548 469.834 C 999.151 414.143 954.992 360.773 896.981 360.773 L 897.004 360.773 Z " fill="rgb(255,202,40)"/></g></g></svg>