<?xml version="1.0" encoding="UTF-8" standalone="no"?><!-- Generator: Gravit.io --><svg xmlns="http://www.w3.org/2000/svg" xmlns:xlink="http://www.w3.org/1999/xlink" style="isolation:isolate" viewBox="0 0 1000 1000" width="1000pt" height="1000pt"><defs><clipPath id="_clipPath_KzIxuC4NlBj43QkZjaCiO08LNriXqQId"><rect width="1000" height="1000"/></clipPath></defs><g clip-path="url(#_clipPath_KzIxuC4NlBj43QkZjaCiO08LNriXqQId)"><g><path d=" M 852.516 549.865 C 854.714 533.999 857.026 518.133 857.026 500 C 857.026 481.867 854.714 466.001 852.493 450.135 L 954.49 377.65 C 963.533 370.827 968.044 357.182 961.221 345.849 L 861.537 178.167 C 854.737 166.834 843.404 162.301 832.071 169.033 L 718.742 221.187 C 692.161 201.115 663.22 184.376 632.566 171.345 L 621.233 46.683 C 619.035 35.35 609.9 26.329 598.568 26.329 L 403.709 26.329 C 392.376 26.329 381.043 35.35 381.043 46.683 L 369.71 171.345 C 337.91 184.99 308.512 200.811 283.557 221.21 L 170.228 169.033 C 158.895 164.523 145.25 169.033 140.762 178.167 L 43.254 345.849 C 36.545 357.182 41.055 370.827 50.076 377.65 L 152.095 450.135 C 149.874 466.001 147.562 481.845 147.562 500 C 147.562 518.133 149.874 533.999 152.095 549.865 L 45.566 622.328 C 36.545 629.15 31.921 642.795 38.766 654.128 L 136.229 821.833 C 143.029 833.166 154.362 837.699 165.695 830.967 L 279.024 778.813 C 306.223 799.167 333.422 815.01 365.2 828.655 L 376.533 953.317 C 378.731 964.65 387.866 973.671 399.199 973.671 L 594.057 973.671 C 605.39 973.671 616.723 964.65 616.723 953.317 L 628.056 828.655 C 659.856 815.01 689.254 799.189 714.209 778.79 L 827.538 830.967 C 838.871 835.477 852.516 830.967 857.004 821.833 L 954.512 654.151 C 961.221 642.818 956.711 629.173 947.69 622.35 L 852.516 549.865 Z  M 498.883 726.659 C 374.221 726.659 272.224 624.662 272.224 500 C 272.224 375.338 374.221 273.341 498.883 273.341 C 623.545 273.341 725.542 375.338 725.542 500 C 725.542 624.662 623.545 726.659 498.883 726.659 Z " fill="rgb(96,125,139)"/><path d=" M 498.883 228.01 C 349.243 228.01 226.893 350.36 226.893 500 C 226.893 649.64 349.243 771.99 498.883 771.99 C 648.523 771.99 770.873 649.64 770.873 500 C 770.873 350.36 648.523 228.01 498.883 228.01 Z  M 498.883 613.329 C 435.419 613.329 385.554 563.464 385.554 500 C 385.554 436.536 435.419 386.671 498.883 386.671 C 562.347 386.671 612.212 436.536 612.212 500 C 612.212 563.464 562.347 613.329 498.883 613.329 Z " fill="rgb(69,90,100)"/></g></g></svg>