<?xml version="1.0" encoding="UTF-8" standalone="no"?><!-- Generator: Gravit.io --><svg xmlns="http://www.w3.org/2000/svg" xmlns:xlink="http://www.w3.org/1999/xlink" style="isolation:isolate" viewBox="0 0 1000 1000" width="1000pt" height="1000pt"><defs><clipPath id="_clipPath_bbpo8mx9NMQXCttKSKyuINoLt00AHW4B"><rect width="1000" height="1000"/></clipPath></defs><g clip-path="url(#_clipPath_bbpo8mx9NMQXCttKSKyuINoLt00AHW4B)"><g><g><rect x="740.161" y="593.03" width="90.749" height="385.025" transform="matrix(0.707,-0.707,0.707,0.707,-325.396,785.557)" fill="rgb(97,97,97)"/><path d=" M 772.248 409.242 C 772.248 609.726 609.738 772.233 409.249 772.233 C 208.76 772.233 46.25 609.726 46.25 409.242 C 46.25 208.757 208.76 46.25 409.249 46.25 C 609.738 46.25 772.248 208.757 772.248 409.242 Z " fill="rgb(97,97,97)"/></g><rect x="777.662" y="683.594" width="90.749" height="278.917" transform="matrix(0.707,-0.707,0.707,0.707,-340.936,823.061)" fill="rgb(55,71,79)"/><path d=" M 114.312 409.242 C 114.312 246.349 246.353 114.311 409.249 114.311 C 572.145 114.311 704.186 246.349 704.186 409.242 C 704.186 572.134 572.145 704.172 409.249 704.172 C 246.353 704.172 114.312 572.134 114.312 409.242 Z " fill="rgb(100,181,246)"/><rect x="250.437" y="363.868" width="317.624" height="90.748" transform="matrix(1,0,0,1,0,0)" fill="rgb(227,242,253)"/></g></g></svg>