<?xml version="1.0" encoding="UTF-8" standalone="no"?><!-- Generator: Gravit.io --><svg xmlns="http://www.w3.org/2000/svg" xmlns:xlink="http://www.w3.org/1999/xlink" style="isolation:isolate" viewBox="0 0 1000 1000" width="1000pt" height="1000pt"><defs><clipPath id="_clipPath_1g3N6AbEtUxitEwsTJXonuxXrPL6eyC0"><rect width="1000" height="1000"/></clipPath></defs><g clip-path="url(#_clipPath_1g3N6AbEtUxitEwsTJXonuxXrPL6eyC0)"><g><path d=" M 617.34 681.5 L 681.5 617.34 L 953.75 889.59 L 889.59 953.75 L 617.34 681.5 Z " fill="rgb(97,97,97)"/><path d=" M 772.25 409.25 C 772.25 609.717 609.717 772.25 409.25 772.25 C 208.783 772.25 46.25 609.717 46.25 409.25 C 46.25 208.783 208.783 46.25 409.25 46.25 C 609.717 46.25 772.25 208.783 772.25 409.25 Z " fill="rgb(97,97,97)"/><path d=" M 692.322 756.573 L 756.482 692.39 L 953.75 889.59 L 889.59 953.75 L 692.322 756.573 Z " fill="rgb(55,71,79)"/><path d=" M 114.313 409.25 C 114.313 246.354 246.354 114.313 409.25 114.313 C 572.146 114.313 704.187 246.354 704.187 409.25 C 704.187 572.146 572.146 704.187 409.25 704.187 C 246.354 704.187 114.313 572.146 114.313 409.25 Z " fill="rgb(100,181,246)"/><path d=" M 363.875 250.438 L 454.625 250.438 L 454.625 568.062 L 363.875 568.062 L 363.875 250.438 Z " fill="rgb(227,242,253)"/><path d=" M 250.438 363.875 L 568.062 363.875 L 568.062 454.625 L 250.438 454.625 L 250.438 363.875 Z " fill="rgb(227,242,253)"/></g></g></svg>